# xmcd
#
# Track frame offsets:
# 150
# 12808
# 25572
# 37726
# 50022
# 62973
# 74761
# 87495
# 100123
# 112422
#
# Disc length: 1662 seconds
#
#
# Revision: 0
# Processed by: cddbd v1.4PL0 Copyright (c) Steve Scherf et al.
# Submitted via: FreeRIP 2.00 
#
DISCID=86067c0a
DTITLE=Moe Bandy - Soft Lights And Hard Country Music
DYEAR=1978
DGENRE=Country
TTITLE0=Soft Lights And Hard Country Music
TTITLE1=Darling Will You Marry Me Again
TTITLE2=Paper Chains
TTITLE3=This Haunted House
TTITLE4=If She Keeps Loving Me
TTITLE5=That's What Makes The Juke Box Play
TTITLE6=There's Nobody Home On The Range Anymore
TTITLE7=Are We Making Love Or Just Making Friends
TTITLE8=A Wound Time Can't Erase
TTITLE9=A Baby And A Sewing Machine
EXTD=Columbia 35288
EXTT0=
EXTT1=
EXTT2=
EXTT3=
EXTT4=
EXTT5=
EXTT6=
EXTT7=
EXTT8=
EXTT9=
PLAYORDER=
